P2
3 2
255
0 128 255
255 128 0
