P2
4 2
100
0 25 50 75
100 75 50 25
