P2
30 30
255
0 8 17 26 35 43 52 61 70 79 87 96 105 114 123 131 140 149 158 167 175 184 193 202 211 219 228 237 246 255
0 8 17 26 35 43 52 61 70 79 87 96 105 114 123 131 140 149 158 167 175 184 193 202 211 219 228 237 246 255
0 8 17 26 35 43 52 61 70 79 87 96 105 114 123 131 140 149 158 167 175 184 193 202 211 219 228 237 246 255
0 8 17 26 35 43 52 61 70 79 87 96 105 114 123 131 140 149 158 167 175 184 193 202 211 219 228 237 246 255
0 8 17 26 35 43 52 61 70 79 87 96 105 114 123 131 140 149 158 167 175 184 193 202 211 219 228 237 246 255
0 8 17 26 35 43 52 61 70 79 87 96 105 114 123 131 140 149 158 167 175 184 193 202 211 219 228 237 246 255
0 8 17 26 35 43 52 61 70 79 87 96 105 114 123 131 140 149 158 167 175 184 193 202 211 219 228 237 246 255
0 8 17 26 35 43 52 61 70 79 87 96 105 114 123 131 140 149 158 167 175 184 193 202 211 219 228 237 246 255
0 8 17 26 35 43 52 61 70 79 87 96 105 114 123 131 140 149 158 167 175 184 193 202 211 219 228 237 246 255
0 8 17 26 35 43 52 61 70 79 87 96 105 114 123 131 140 149 158 167 175 184 193 202 211 219 228 237 246 255
0 8 17 26 35 43 52 61 70 79 87 96 105 114 123 131 140 149 158 167 175 184 193 202 211 219 228 237 246 255
0 8 17 26 35 43 52 61 70 79 87 96 105 114 123 131 140 149 158 167 175 184 193 202 211 219 228 237 246 255
0 8 17 26 35 43 52 61 70 79 87 96 105 114 123 131 140 149 158 167 175 184 193 202 211 219 228 237 246 255
0 8 17 26 35 43 52 61 70 79 87 96 105 114 123 131 140 149 158 167 175 184 193 202 211 219 228 237 246 255
0 8 17 26 35 43 52 61 70 79 87 96 105 114 123 131 140 149 158 167 175 184 193 202 211 219 228 237 246 255
0 8 17 26 35 43 52 61 70 79 87 96 105 114 123 131 140 149 158 167 175 184 193 202 211 219 228 237 246 255
0 8 17 26 35 43 52 61 70 79 87 96 105 114 123 131 140 149 158 167 175 184 193 202 211 219 228 237 246 255
0 8 17 26 35 43 52 61 70 79 87 96 105 114 123 131 140 149 158 167 175 184 193 202 211 219 228 237 246 255
0 8 17 26 35 43 52 61 70 79 87 96 105 114 123 131 140 149 158 167 175 184 193 202 211 219 228 237 246 255
0 8 17 26 35 43 52 61 70 79 87 96 105 114 123 131 140 149 158 167 175 184 193 202 211 219 228 237 246 255
0 8 17 26 35 43 52 61 70 79 87 96 105 114 123 131 140 149 158 167 175 184 193 202 211 219 228 237 246 255
0 8 17 26 35 43 52 61 70 79 87 96 105 114 123 131 140 149 158 167 175 184 193 202 211 219 228 237 246 255
0 8 17 26 35 43 52 61 70 79 87 96 105 114 123 131 140 149 158 167 175 184 193 202 211 219 228 237 246 255
0 8 17 26 35 43 52 61 70 79 87 96 105 114 123 131 140 149 158 167 175 184 193 202 211 219 228 237 246 255
0 8 17 26 35 43 52 61 70 79 87 96 105 114 123 131 140 149 158 167 175 184 193 202 211 219 228 237 246 255
0 8 17 26 35 43 52 61 70 79 87 96 105 114 123 131 140 149 158 167 175 184 193 202 211 219 228 237 246 255
0 8 17 26 35 43 52 61 70 79 87 96 105 114 123 131 140 149 158 167 175 184 193 202 211 219 228 237 246 255
0 8 17 26 35 43 52 61 70 79 87 96 105 114 123 131 140 149 158 167 175 184 193 202 211 219 228 237 246 255
0 8 17 26 35 43 52 61 70 79 87 96 105 114 123 131 140 149 158 167 175 184 193 202 211 219 228 237 246 255
0 8 17 26 35 43 52 61 70 79 87 96 105 114 123 131 140 149 158 167 175 184 193 202 211 219 228 237 246 255
