P3
30 30
255
0 0 0 4 4 4 8 8 8 13 13 13 17 17 17 21 21 21 26 26 26 30 30 30 35 35 35 39 39 39 43 43 43 48 48 48 52 52 52 57 57 57 61 61 61 65 65 65 70 70 70 74 74 74 79 79 79 83 83 83 87 87 87 92 92 92 96 96 96 101 101 101 105 105 105 109 109 109 114 114 114 118 118 118 123 123 123 127 127 127
4 4 4 8 8 8 13 13 13 17 17 17 21 21 21 26 26 26 30 30 30 35 35 35 39 39 39 43 43 43 48 48 48 52 52 52 57 57 57 61 61 61 65 65 65 70 70 70 74 74 74 79 79 79 83 83 83 87 87 87 92 92 92 96 96 96 101 101 101 105 105 105 109 109 109 114 114 114 118 118 118 123 123 123 127 127 127 131 131 131
8 8 8 13 13 13 17 17 17 21 21 21 26 26 26 30 30 30 35 35 35 39 39 39 43 43 43 48 48 48 52 52 52 57 57 57 61 61 61 65 65 65 70 70 70 74 74 74 79 79 79 83 83 83 87 87 87 92 92 92 96 96 96 101 101 101 105 105 105 109 109 109 114 114 114 118 118 118 123 123 123 127 127 127 131 131 131 136 136 136
13 13 13 17 17 17 21 21 21 26 26 26 30 30 30 35 35 35 39 39 39 43 43 43 48 48 48 52 52 52 57 57 57 61 61 61 65 65 65 70 70 70 74 74 74 79 79 79 83 83 83 87 87 87 92 92 92 96 96 96 101 101 101 105 105 105 109 109 109 114 114 114 118 118 118 123 123 123 127 127 127 131 131 131 136 136 136 140 140 140
17 17 17 21 21 21 26 26 26 30 30 30 35 35 35 39 39 39 43 43 43 48 48 48 52 52 52 57 57 57 61 61 61 65 65 65 70 70 70 74 74 74 79 79 79 83 83 83 87 87 87 92 92 92 96 96 96 101 101 101 105 105 105 109 109 109 114 114 114 118 118 118 123 123 123 127 127 127 131 131 131 136 136 136 140 140 140 145 145 145
21 21 21 26 26 26 30 30 30 35 35 35 39 39 39 43 43 43 48 48 48 52 52 52 57 57 57 61 61 61 65 65 65 70 70 70 74 74 74 79 79 79 83 83 83 87 87 87 92 92 92 96 96 96 101 101 101 105 105 105 109 109 109 114 114 114 118 118 118 123 123 123 127 127 127 131 131 131 136 136 136 140 140 140 145 145 145 149 149 149
26 26 26 30 30 30 35 35 35 39 39 39 43 43 43 48 48 48 52 52 52 57 57 57 61 61 61 65 65 65 70 70 70 74 74 74 79 79 79 83 83 83 87 87 87 92 92 92 96 96 96 101 101 101 105 105 105 109 109 109 114 114 114 118 118 118 123 123 123 127 127 127 131 131 131 136 136 136 140 140 140 145 145 145 149 149 149 153 153 153
30 30 30 35 35 35 39 39 39 43 43 43 48 48 48 52 52 52 57 57 57 61 61 61 65 65 65 70 70 70 74 74 74 79 79 79 83 83 83 87 87 87 92 92 92 96 96 96 101 101 101 105 105 105 109 109 109 114 114 114 118 118 118 123 123 123 127 127 127 131 131 131 136 136 136 140 140 140 145 145 145 149 149 149 153 153 153 158 158 158
35 35 35 39 39 39 43 43 43 48 48 48 52 52 52 57 57 57 61 61 61 65 65 65 70 70 70 74 74 74 79 79 79 83 83 83 87 87 87 92 92 92 96 96 96 101 101 101 105 105 105 109 109 109 114 114 114 118 118 118 123 123 123 127 127 127 131 131 131 136 136 136 140 140 140 145 145 145 149 149 149 153 153 153 158 158 158 162 162 162
39 39 39 43 43 43 48 48 48 52 52 52 57 57 57 61 61 61 65 65 65 70 70 70 74 74 74 79 79 79 83 83 83 87 87 87 92 92 92 96 96 96 101 101 101 105 105 105 109 109 109 114 114 114 118 118 118 123 123 123 127 127 127 131 131 131 136 136 136 140 140 140 145 145 145 149 149 149 153 153 153 158 158 158 162 162 162 167 167 167
43 43 43 48 48 48 52 52 52 57 57 57 61 61 61 65 65 65 70 70 70 74 74 74 79 79 79 83 83 83 87 87 87 92 92 92 96 96 96 101 101 101 105 105 105 109 109 109 114 114 114 118 118 118 123 123 123 127 127 127 131 131 131 136 136 136 140 140 140 145 145 145 149 149 149 153 153 153 158 158 158 162 162 162 167 167 167 171 171 171
48 48 48 52 52 52 57 57 57 61 61 61 65 65 65 70 70 70 74 74 74 79 79 79 83 83 83 87 87 87 92 92 92 96 96 96 101 101 101 105 105 105 109 109 109 114 114 114 118 118 118 123 123 123 127 127 127 131 131 131 136 136 136 140 140 140 145 145 145 149 149 149 153 153 153 158 158 158 162 162 162 167 167 167 171 171 171 175 175 175
52 52 52 57 57 57 61 61 61 65 65 65 70 70 70 74 74 74 79 79 79 83 83 83 87 87 87 92 92 92 96 96 96 101 101 101 105 105 105 109 109 109 114 114 114 118 118 118 123 123 123 127 127 127 131 131 131 136 136 136 140 140 140 145 145 145 149 149 149 153 153 153 158 158 158 162 162 162 167 167 167 171 171 171 175 175 175 180 180 180
57 57 57 61 61 61 65 65 65 70 70 70 74 74 74 79 79 79 83 83 83 87 87 87 92 92 92 96 96 96 101 101 101 105 105 105 109 109 109 114 114 114 118 118 118 123 123 123 127 127 127 131 131 131 136 136 136 140 140 140 145 145 145 149 149 149 153 153 153 158 158 158 162 162 162 167 167 167 171 171 171 175 175 175 180 180 180 184 184 184
61 61 61 65 65 65 70 70 70 74 74 74 79 79 79 83 83 83 87 87 87 92 92 92 96 96 96 101 101 101 105 105 105 109 109 109 114 114 114 118 118 118 123 123 123 127 127 127 131 131 131 136 136 136 140 140 140 145 145 145 149 149 149 153 153 153 158 158 158 162 162 162 167 167 167 171 171 171 175 175 175 180 180 180 184 184 184 189 189 189
65 65 65 70 70 70 74 74 74 79 79 79 83 83 83 87 87 87 92 92 92 96 96 96 101 101 101 105 105 105 109 109 109 114 114 114 118 118 118 123 123 123 127 127 127 131 131 131 136 136 136 140 140 140 145 145 145 149 149 149 153 153 153 158 158 158 162 162 162 167 167 167 171 171 171 175 175 175 180 180 180 184 184 184 189 189 189 193 193 193
70 70 70 74 74 74 79 79 79 83 83 83 87 87 87 92 92 92 96 96 96 101 101 101 105 105 105 109 109 109 114 114 114 118 118 118 123 123 123 127 127 127 131 131 131 136 136 136 140 140 140 145 145 145 149 149 149 153 153 153 158 158 158 162 162 162 167 167 167 171 171 171 175 175 175 180 180 180 184 184 184 189 189 189 193 193 193 197 197 197
74 74 74 79 79 79 83 83 83 87 87 87 92 92 92 96 96 96 101 101 101 105 105 105 109 109 109 114 114 114 118 118 118 123 123 123 127 127 127 131 131 131 136 136 136 140 140 140 145 145 145 149 149 149 153 153 153 158 158 158 162 162 162 167 167 167 171 171 171 175 175 175 180 180 180 184 184 184 189 189 189 193 193 193 197 197 197 202 202 202
79 79 79 83 83 83 87 87 87 92 92 92 96 96 96 101 101 101 105 105 105 109 109 109 114 114 114 118 118 118 123 123 123 127 127 127 131 131 131 136 136 136 140 140 140 145 145 145 149 149 149 153 153 153 158 158 158 162 162 162 167 167 167 171 171 171 175 175 175 180 180 180 184 184 184 189 189 189 193 193 193 197 197 197 202 202 202 206 206 206
83 83 83 87 87 87 92 92 92 96 96 96 101 101 101 105 105 105 109 109 109 114 114 114 118 118 118 123 123 123 127 127 127 131 131 131 136 136 136 140 140 140 145 145 145 149 149 149 153 153 153 158 158 158 162 162 162 167 167 167 171 171 171 175 175 175 180 180 180 184 184 184 189 189 189 193 193 193 197 197 197 202 202 202 206 206 206 211 211 211
87 87 87 92 92 92 96 96 96 101 101 101 105 105 105 109 109 109 114 114 114 118 118 118 123 123 123 127 127 127 131 131 131 136 136 136 140 140 140 145 145 145 149 149 149 153 153 153 158 158 158 162 162 162 167 167 167 171 171 171 175 175 175 180 180 180 184 184 184 189 189 189 193 193 193 197 197 197 202 202 202 206 206 206 211 211 211 215 215 215
92 92 92 96 96 96 101 101 101 105 105 105 109 109 109 114 114 114 118 118 118 123 123 123 127 127 127 131 131 131 136 136 136 140 140 140 145 145 145 149 149 149 153 153 153 158 158 158 162 162 162 167 167 167 171 171 171 175 175 175 180 180 180 184 184 184 189 189 189 193 193 193 197 197 197 202 202 202 206 206 206 211 211 211 215 215 215 219 219 219
96 96 96 101 101 101 105 105 105 109 109 109 114 114 114 118 118 118 123 123 123 127 127 127 131 131 131 136 136 136 140 140 140 145 145 145 149 149 149 153 153 153 158 158 158 162 162 162 167 167 167 171 171 171 175 175 175 180 180 180 184 184 184 189 189 189 193 193 193 197 197 197 202 202 202 206 206 206 211 211 211 215 215 215 219 219 219 224 224 224
101 101 101 105 105 105 109 109 109 114 114 114 118 118 118 123 123 123 127 127 127 131 131 131 136 136 136 140 140 140 145 145 145 149 149 149 153 153 153 158 158 158 162 162 162 167 167 167 171 171 171 175 175 175 180 180 180 184 184 184 189 189 189 193 193 193 197 197 197 202 202 202 206 206 206 211 211 211 215 215 215 219 219 219 224 224 224 228 228 228
105 105 105 109 109 109 114 114 114 118 118 118 123 123 123 127 127 127 131 131 131 136 136 136 140 140 140 145 145 145 149 149 149 153 153 153 158 158 158 162 162 162 167 167 167 171 171 171 175 175 175 180 180 180 184 184 184 189 189 189 193 193 193 197 197 197 202 202 202 206 206 206 211 211 211 215 215 215 219 219 219 224 224 224 228 228 228 233 233 233
109 109 109 114 114 114 118 118 118 123 123 123 127 127 127 131 131 131 136 136 136 140 140 140 145 145 145 149 149 149 153 153 153 158 158 158 162 162 162 167 167 167 171 171 171 175 175 175 180 180 180 184 184 184 189 189 189 193 193 193 197 197 197 202 202 202 206 206 206 211 211 211 215 215 215 219 219 219 224 224 224 228 228 228 233 233 233 237 237 237
114 114 114 118 118 118 123 123 123 127 127 127 131 131 131 136 136 136 140 140 140 145 145 145 149 149 149 153 153 153 158 158 158 162 162 162 167 167 167 171 171 171 175 175 175 180 180 180 184 184 184 189 189 189 193 193 193 197 197 197 202 202 202 206 206 206 211 211 211 215 215 215 219 219 219 224 224 224 228 228 228 233 233 233 237 237 237 241 241 241
118 118 118 123 123 123 127 127 127 131 131 131 136 136 136 140 140 140 145 145 145 149 149 149 153 153 153 158 158 158 162 162 162 167 167 167 171 171 171 175 175 175 180 180 180 184 184 184 189 189 189 193 193 193 197 197 197 202 202 202 206 206 206 211 211 211 215 215 215 219 219 219 224 224 224 228 228 228 233 233 233 237 237 237 241 241 241 246 246 246
123 123 123 127 127 127 131 131 131 136 136 136 140 140 140 145 145 145 149 149 149 153 153 153 158 158 158 162 162 162 167 167 167 171 171 171 175 175 175 180 180 180 184 184 184 189 189 189 193 193 193 197 197 197 202 202 202 206 206 206 211 211 211 215 215 215 219 219 219 224 224 224 228 228 228 233 233 233 237 237 237 241 241 241 246 246 246 250 250 250
127 127 127 131 131 131 136 136 136 140 140 140 145 145 145 149 149 149 153 153 153 158 158 158 162 162 162 167 167 167 171 171 171 175 175 175 180 180 180 184 184 184 189 189 189 193 193 193 197 197 197 202 202 202 206 206 206 211 211 211 215 215 215 219 219 219 224 224 224 228 228 228 233 233 233 237 237 237 241 241 241 246 246 246 250 250 250 255 255 255
